<?xml version="1.0" encoding="utf-8"?>
<!-- Generator: Adobe Illustrator 22.0.1, SVG Export Plug-In . SVG Version: 6.00 Build 0)  -->
<svg version="1.1" id="Layer_1" xmlns="http://www.w3.org/2000/svg" xmlns:xlink="http://www.w3.org/1999/xlink" x="0px" y="0px"
	 viewBox="0 0 124 30.9" style="enable-background:new 0 0 124 30.9;" xml:space="preserve">
<style type="text/css">
	.st0{fill:#00CFBF;}
	.st1{fill:#3B3B3B;}
</style>
<g>
	<path class="st0" d="M24.5,8.6c-0.2-0.4-0.6-0.8-1-1L14,2.2c-0.4-0.2-0.9-0.3-1.4-0.3c-0.5,0-0.9,0.1-1.4,0.3L1.8,7.6
		c-0.4,0.3-0.7,0.6-1,1C0.6,9.1,0.5,9.5,0.5,10v10.9c0,0.5,0.1,0.9,0.4,1.4c0.2,0.4,0.6,0.8,1,1l9.5,5.5c0.4,0.2,0.9,0.3,1.4,0.3
		c0.5,0,0.9-0.1,1.4-0.3l9.5-5.5c0.4-0.3,0.7-0.6,1-1c0.2-0.4,0.4-0.9,0.4-1.4l0-10.9C24.9,9.5,24.7,9.1,24.5,8.6z M4.1,20.4
		c-0.2-0.3-0.3-0.6-0.3-1v-7.9c0-0.3,0.1-0.7,0.3-1c0.2-0.3,0.4-0.5,0.7-0.7l6.9-4c0.3-0.2,0.6-0.2,1-0.2c0.4,0,0.7,0.1,1,0.2
		L17.6,8c-0.2,0.1-0.4,0.1-0.7,0.2c-1.4,0.5-2.5,1.3-3.4,2.3c-0.9,1-1.6,2.1-2.1,3.5c-0.4,1.3-0.7,2.6-0.7,4.1v6.4l-5.9-3.4
		C4.5,21,4.3,20.7,4.1,20.4z M21.5,19.4c0,0.3-0.1,0.7-0.3,1c-0.2,0.3-0.4,0.5-0.7,0.7l-5.9,3.4v-6.4c0-1,0.1-2,0.4-2.8
		c0.3-0.8,0.7-1.5,1.2-2.1c0.5-0.6,1.2-1,2-1.3c0.9-0.3,1.9-0.5,3.1-0.5c0,0,0.1,0,0.1,0c0,0,0,0,0,0.1L21.5,19.4z"/>
	<g>
		<g>
			<g>
				<path class="st1" d="M34.1,9.1c0.8,0,1.4,0.1,2,0.3c0.6,0.2,1.1,0.5,1.5,0.9c0.4,0.4,0.7,0.9,0.9,1.4c0.2,0.5,0.3,1.2,0.3,1.8
					v5.5c0,0.3-0.1,0.5-0.4,0.7c-0.2,0.2-0.5,0.3-0.9,0.3c-0.4,0-0.7-0.1-0.9-0.3c-0.2-0.2-0.3-0.4-0.3-0.7v-5.4
					c0-0.8-0.2-1.3-0.6-1.7c-0.4-0.4-0.9-0.5-1.6-0.5c-0.6,0-1.2,0.2-1.6,0.5s-0.6,0.9-0.6,1.7v5.4c0,0.3-0.1,0.5-0.3,0.7
					c-0.2,0.2-0.5,0.3-0.9,0.3c-0.4,0-0.7-0.1-0.9-0.3c-0.2-0.2-0.3-0.4-0.3-0.7v-5.3c0-0.7,0.1-1.3,0.3-1.8
					c0.2-0.6,0.5-1.1,0.9-1.5c0.4-0.4,0.9-0.7,1.5-1C32.7,9.3,33.4,9.1,34.1,9.1z"/>
				<path class="st1" d="M45.7,20.1c-0.8,0-1.4-0.1-2-0.3c-0.6-0.2-1.1-0.6-1.5-1c-0.4-0.4-0.7-0.9-0.9-1.5
					c-0.2-0.6-0.3-1.2-0.3-1.8v-5.3c0-0.3,0.1-0.5,0.3-0.7c0.2-0.2,0.5-0.3,0.9-0.3c0.4,0,0.7,0.1,0.9,0.3c0.2,0.2,0.3,0.4,0.3,0.7
					v5.4c0,0.8,0.2,1.3,0.6,1.7c0.4,0.4,0.9,0.5,1.6,0.5s1.2-0.2,1.6-0.5c0.4-0.4,0.6-0.9,0.6-1.7v-5.4c0-0.3,0.1-0.5,0.3-0.7
					c0.2-0.2,0.5-0.3,0.9-0.3c0.4,0,0.7,0.1,0.9,0.3c0.2,0.2,0.4,0.4,0.4,0.7v5.3c0,0.7-0.1,1.3-0.3,1.8c-0.2,0.6-0.5,1.1-0.9,1.5
					c-0.4,0.4-0.9,0.7-1.5,1C47.2,20,46.5,20.1,45.7,20.1z"/>
				<path class="st1" d="M59.4,6.4c0.4,0,0.7,0.1,0.9,0.3c0.2,0.2,0.3,0.5,0.3,0.8c0,0.3-0.1,0.6-0.3,0.8c-0.2,0.2-0.5,0.3-0.9,0.3
					h-2.8v10.5c0,0.3-0.1,0.5-0.3,0.7c-0.2,0.2-0.5,0.3-0.9,0.3c-0.4,0-0.7-0.1-0.9-0.3c-0.2-0.2-0.3-0.4-0.3-0.7V8.6h-2.5
					c-0.4,0-0.7-0.1-0.9-0.3c-0.2-0.2-0.3-0.5-0.3-0.8c0-0.4,0.1-0.6,0.3-0.8c0.2-0.2,0.5-0.3,0.9-0.3H59.4z"/>
				<path class="st1" d="M59.7,14c0-0.7,0.1-1.3,0.3-1.9c0.2-0.6,0.5-1.1,0.9-1.5c0.4-0.4,0.9-0.8,1.5-1c0.6-0.3,1.3-0.4,2.1-0.4
					c0.8,0,1.5,0.1,2.1,0.4c0.6,0.3,1.1,0.6,1.5,1c0.4,0.4,0.7,1,0.9,1.5c0.2,0.6,0.3,1.2,0.3,1.9v1.5c0,0.6-0.1,1.2-0.3,1.8
					c-0.2,0.6-0.5,1.1-0.9,1.5c-0.4,0.4-0.9,0.8-1.5,1C66,19.9,65.3,20,64.5,20c-0.8,0-1.5-0.1-2.1-0.4c-0.6-0.2-1.1-0.6-1.5-1
					c-0.4-0.4-0.7-0.9-0.9-1.5c-0.2-0.6-0.3-1.2-0.3-1.8V14z M62.2,15.4c0,0.8,0.2,1.4,0.6,1.8c0.4,0.4,1,0.6,1.7,0.6
					c0.7,0,1.3-0.2,1.7-0.6c0.4-0.4,0.6-1,0.6-1.8v-1.5c0-0.8-0.2-1.5-0.6-1.9c-0.4-0.4-1-0.7-1.7-0.7c-0.7,0-1.3,0.2-1.7,0.7
					c-0.4,0.4-0.6,1.1-0.6,1.9V15.4z"/>
				<path class="st1" d="M75.9,9.1c0.8,0,1.4,0.1,2,0.3c0.6,0.2,1.1,0.5,1.5,0.9c0.4,0.4,0.7,0.9,0.9,1.4c0.2,0.5,0.3,1.2,0.3,1.8
					v5.5c0,0.3-0.1,0.5-0.4,0.7c-0.2,0.2-0.5,0.3-0.9,0.3c-0.4,0-0.7-0.1-0.9-0.3c-0.2-0.2-0.3-0.4-0.3-0.7v-5.4
					c0-0.8-0.2-1.3-0.6-1.7s-0.9-0.5-1.6-0.5s-1.2,0.2-1.6,0.5c-0.4,0.4-0.6,0.9-0.6,1.7v5.4c0,0.3-0.1,0.5-0.3,0.7
					c-0.2,0.2-0.5,0.3-0.9,0.3c-0.4,0-0.7-0.1-0.9-0.3c-0.2-0.2-0.3-0.4-0.3-0.7v-5.3c0-0.7,0.1-1.3,0.3-1.8
					c0.2-0.6,0.5-1.1,0.9-1.5c0.4-0.4,0.9-0.7,1.5-1C74.4,9.3,75.1,9.1,75.9,9.1z"/>
				<path class="st1" d="M82.6,14c0-0.7,0.1-1.3,0.3-1.9c0.2-0.6,0.5-1.1,0.9-1.5s0.9-0.8,1.5-1c0.6-0.3,1.3-0.4,2.1-0.4
					c0.8,0,1.5,0.1,2.1,0.4c0.6,0.3,1.1,0.6,1.5,1c0.4,0.4,0.7,1,0.9,1.5c0.2,0.6,0.3,1.2,0.3,1.9v1.5c0,0.6-0.1,1.2-0.3,1.8
					c-0.2,0.6-0.5,1.1-0.9,1.5c-0.4,0.4-0.9,0.8-1.5,1c-0.6,0.2-1.3,0.4-2.1,0.4c-0.8,0-1.5-0.1-2.1-0.4c-0.6-0.2-1.1-0.6-1.5-1
					s-0.7-0.9-0.9-1.5c-0.2-0.6-0.3-1.2-0.3-1.8V14z M85,15.4c0,0.8,0.2,1.4,0.6,1.8c0.4,0.4,1,0.6,1.7,0.6c0.7,0,1.3-0.2,1.7-0.6
					c0.4-0.4,0.6-1,0.6-1.8v-1.5c0-0.8-0.2-1.5-0.6-1.9c-0.4-0.4-1-0.7-1.7-0.7c-0.7,0-1.3,0.2-1.7,0.7c-0.4,0.4-0.6,1.1-0.6,1.9
					V15.4z"/>
				<path class="st1" d="M104.8,9.2c0.8,0,1.5,0.1,2,0.3c0.5,0.2,1,0.6,1.3,1c0.3,0.4,0.5,0.9,0.7,1.5c0.1,0.6,0.2,1.2,0.2,1.8v5.3
					c0,0.3-0.1,0.5-0.3,0.7c-0.2,0.2-0.5,0.3-0.9,0.3c-0.4,0-0.6-0.1-0.9-0.3c-0.2-0.2-0.3-0.4-0.3-0.7v-5.4c0-0.8-0.1-1.3-0.4-1.7
					c-0.3-0.4-0.8-0.5-1.5-0.5c-1.2,0-1.8,0.8-1.8,2.3v5.5l0,0.2l0,0.1c0,0,0,0.1,0,0.1c0,0,0,0-0.1,0.1c-0.1,0.1-0.2,0.3-0.4,0.3
					s-0.4,0.1-0.6,0.2h-0.1c-0.3,0-0.6-0.1-0.8-0.2c-0.2-0.2-0.3-0.3-0.4-0.6l0,0v-5.5c0-1.5-0.6-2.3-1.8-2.3
					c-0.7,0-1.2,0.2-1.5,0.5c-0.3,0.4-0.4,0.9-0.4,1.7v5.4c0,0.3-0.1,0.5-0.3,0.7c-0.2,0.2-0.5,0.3-0.9,0.3c-0.4,0-0.7-0.1-0.9-0.3
					c-0.2-0.2-0.3-0.4-0.3-0.7v-5.3c0-0.7,0.1-1.3,0.2-1.8c0.1-0.6,0.3-1.1,0.7-1.5c0.3-0.4,0.7-0.7,1.3-1c0.5-0.2,1.2-0.3,2-0.3
					c0.8,0,1.5,0.2,2,0.5c0.5,0.3,0.9,0.7,1.3,1.2c0.3-0.5,0.7-0.9,1.3-1.2C103.3,9.3,104,9.2,104.8,9.2z"/>
				<path class="st1" d="M118,9.4c0.2-0.2,0.5-0.3,0.9-0.3c0.4,0,0.7,0.1,0.9,0.3c0.2,0.2,0.3,0.4,0.3,0.7v10.5
					c0,0.7-0.1,1.3-0.4,1.8c-0.2,0.5-0.5,0.9-0.9,1.2c-0.4,0.3-0.9,0.6-1.4,0.7c-0.5,0.2-1.1,0.2-1.7,0.2c-0.7,0-1.2,0-1.6-0.1
					c-0.4-0.1-0.7-0.1-0.9-0.2c-0.5-0.3-0.7-0.7-0.7-1.1c0-0.3,0.1-0.6,0.3-0.7c0.2-0.2,0.5-0.3,0.9-0.3c0.2,0,0.4,0,0.8,0.1
					c0.4,0.1,0.8,0.1,1.3,0.1c0.7,0,1.2-0.2,1.5-0.5c0.3-0.3,0.5-0.7,0.5-1.3V19l-0.1,0c-0.3,0.4-0.7,0.6-1.1,0.8
					c-0.4,0.2-0.9,0.3-1.5,0.3c-0.8,0-1.4-0.1-1.9-0.3c-0.5-0.2-0.9-0.5-1.2-0.9c-0.3-0.4-0.5-0.9-0.6-1.4c-0.1-0.5-0.2-1.1-0.2-1.8
					v-5.5c0-0.3,0.1-0.5,0.4-0.7c0.2-0.2,0.5-0.3,0.9-0.3c0.4,0,0.7,0.1,0.9,0.3c0.2,0.2,0.3,0.4,0.3,0.7v5.6c0,0.7,0.1,1.2,0.4,1.5
					c0.3,0.4,0.8,0.5,1.5,0.5c0.5,0,1-0.1,1.3-0.4c0.4-0.2,0.6-0.6,0.8-1.1V10C117.7,9.8,117.8,9.6,118,9.4z"/>
			</g>
			<g>
				<path class="st1" d="M121.6,10.2c0-0.3,0.1-0.5,0.3-0.7s0.4-0.3,0.7-0.3c0.3,0,0.5,0.1,0.7,0.3c0.2,0.2,0.3,0.4,0.3,0.7
					c0,0.3-0.1,0.5-0.3,0.7c-0.2,0.2-0.4,0.3-0.7,0.3c-0.3,0-0.5-0.1-0.7-0.3C121.7,10.7,121.6,10.5,121.6,10.2z M121.7,10.2
					c0,0.2,0.1,0.4,0.2,0.6c0.2,0.2,0.4,0.2,0.6,0.2c0.2,0,0.4-0.1,0.6-0.2c0.2-0.2,0.2-0.4,0.2-0.6c0-0.2-0.1-0.4-0.2-0.6
					c-0.2-0.2-0.3-0.2-0.6-0.2c-0.2,0-0.4,0.1-0.6,0.2C121.8,9.7,121.7,9.9,121.7,10.2z M122.3,10.3v0.5h-0.2V9.6h0.4
					c0.1,0,0.2,0,0.3,0.1s0.1,0.2,0.1,0.3c0,0.1,0,0.1,0,0.1s-0.1,0.1-0.1,0.1c0.1,0,0.1,0.1,0.1,0.1c0,0.1,0,0.1,0,0.2v0.1
					c0,0,0,0.1,0,0.1c0,0,0,0.1,0,0.1v0h-0.2c0,0,0,0,0-0.1s0-0.1,0-0.1v-0.1c0-0.1,0-0.1,0-0.1c0,0-0.1,0-0.2,0H122.3z M122.3,10.1
					h0.2c0.1,0,0.1,0,0.2,0s0.1-0.1,0.1-0.1c0-0.1,0-0.1-0.1-0.1c0,0-0.1,0-0.2,0h-0.2V10.1z"/>
			</g>
		</g>
	</g>
</g>
</svg>
